<mxfile host="app.diagrams.net" modified="2024-07-04T06:39:56.294Z" agent="Mozilla/5.0 (Windows NT 10.0; Win64; x64) AppleWebKit/537.36 (KHTML, like Gecko) Chrome/112.0.0.0 Safari/537.36 QuarkPC/1.5.1.72" version="24.6.4" etag="9pPYxEBaSFY_hzzgf-jW" type="github">
  <diagram name="第 1 页" id="BExVDsO33mmpxlcEgFEQ">
    <mxGraphModel>
      <root>
        <mxCell id="0" />
        <mxCell id="1" parent="0" />
      </root>
    </mxGraphModel>
  </diagram>
</mxfile>
